<svg width="240" height="240" viewBox="0 0 240 240" fill="none" xmlns="http://www.w3.org/2000/svg">
  <defs>
    <linearGradient id="grad" x1="0%" y1="0%" x2="100%" y2="100%">
      <stop offset="0%" stop-color="#f7acae"/>
      <stop offset="100%" stop-color="#f2d6b6"/>
    </linearGradient>
  </defs>
  <rect width="240" height="240" rx="40" fill="#fff4ee"/>
  <path d="M120 32C90 32 72 50 72 78c0 34 48 72 48 72s48-38 48-72c0-28-18-46-48-46z" fill="url(#grad)"/>
  <path d="M88 108c-15 3-28 16-30 31-2 18 12 38 31 40 22 3 35-16 39-25 4 9 17 27 39 25 19-2 33-22 31-40-2-15-15-28-30-31-16-4-28 6-36 17-8-11-20-21-36-17z" fill="#f1bb9c"/>
  <circle cx="88" cy="138" r="10" fill="#ffffff" opacity="0.85"/>
  <circle cx="152" cy="142" r="10" fill="#ffffff" opacity="0.85"/>
  <path d="M70 176C70 176 90 210 120 210C150 210 170 176 170 176" stroke="#d38372" stroke-width="12" stroke-linecap="round"/>
  <path d="M86 80C86 80 84 94 94 104C104 114 128 120 144 106C160 92 160 80 160 80" stroke="#a35d4e" stroke-width="12" stroke-linecap="round" stroke-linejoin="round"/>
  <path d="M102 118C102 118 108 128 120 128C132 128 138 118 138 118" stroke="#8b4c3b" stroke-width="10" stroke-linecap="round"/>
  <path d="M68 170C68 170 70 158 78 146C84 138 96 132 108 132" stroke="#a35d4e" stroke-width="10" stroke-linecap="round"/>
  <path d="M172 170C172 170 170 158 162 146C156 138 144 132 132 132" stroke="#a35d4e" stroke-width="10" stroke-linecap="round"/>
</svg>
